<svg xmlns="http://www.w3.org/2000/svg" xmlns:xlink="http://www.w3.org/1999/xlink" viewBox="0 0 54 65" fill="#fff" fill-rule="evenodd" stroke="#000" stroke-linecap="round" stroke-linejoin="round"><style><![CDATA[.B{fill-rule:nonzero}]]></style><use xlink:href="#A" x=".5" y=".5"/><symbol id="A" overflow="visible"><g stroke="none"><g fill="#b7ca9d" class="B"><path d="M3.387 44.262l.447.507 22.573 6.4.102-3.966-15.8-3.967-.774-.28-6.54 1.307"/><path d="M49.187 44.262l-23.053 7.695-.07-4.755 15.8-3.967.7-.775 6.624 1.803"/></g><path d="M26.064 17.08l15.8 3.684 6.953-.33.36-.697-22.026-7.93-1.095 5.27" fill="#3c4929" class="B"/><path d="M10.7 43.235l-7.313 1.027-.204-.76V20.536l.204-.8 6.608.5.705.536v22.47" fill="#759c3e" class="B"/><path d="M26.509 17.08l-15.8 3.684-7.322-1.027.276-.433 22.744-6.474.102 4.248" fill="#3c4929" class="B"/><path d="M26.255 0L0 13.252.013 50.754 26.255 64l.4-.594V.77zm-7.668 48.82l-15.2-4.558V19.737l15.2-4.557zm23.295-5.587l7.313 1.028.4-.725V20.434l-.4-.697-7.313 1.027v22.47" fill="#4b612c" class="B"/><path d="M26.255 64l26.306-13.245.013-37.502L26.255 0zm7.74-48.82l15.2 4.557v24.525l-15.2 4.56z" fill="#759c3e" class="B"/></g></symbol></svg>