<svg id="Data_User" data-name="Data User" xmlns="http://www.w3.org/2000/svg" xmlns:xlink="http://www.w3.org/1999/xlink" viewBox="0 0 128 128"><defs><style>.cls-1{fill:url(#linear-gradient);}.cls-2{fill:#c7cdd8;}.cls-3{fill:url(#linear-gradient-2);}.cls-4{fill:#5b8dc9;}.cls-5{fill:url(#linear-gradient-3);}.cls-6{fill:url(#linear-gradient-4);}.cls-7{fill:url(#linear-gradient-5);}.cls-8{fill:#77cacb;}.cls-9{fill:#42455e;}.cls-10{fill:#47566a;}</style><linearGradient id="linear-gradient" x1="64" y1="127" x2="64" y2="107" gradientUnits="userSpaceOnUse"><stop offset="0" stop-color="#dde1e8"/><stop offset="1" stop-color="#f3f4f5"/></linearGradient><linearGradient id="linear-gradient-2" x1="63.96" y1="118.96" x2="63.96" y2="1" gradientUnits="userSpaceOnUse"><stop offset="0" stop-color="#7aa8d7"/><stop offset="1" stop-color="#96c8ea"/></linearGradient><linearGradient id="linear-gradient-3" x1="68" y1="77.05" x2="68" y2="13" xlink:href="#linear-gradient"/><linearGradient id="linear-gradient-4" x1="68" y1="77" x2="68" y2="51" gradientUnits="userSpaceOnUse"><stop offset="0" stop-color="#9dd5df"/><stop offset="1" stop-color="#c3e1f5"/></linearGradient><linearGradient id="linear-gradient-5" y1="51" y2="27" xlink:href="#linear-gradient-4"/></defs><title>Data User</title><path class="cls-1" d="M113,107v16a4,4,0,0,1-4,4H23.31A8.21,8.21,0,0,1,15,119.57,8,8,0,0,1,23,111h86A4,4,0,0,0,113,107Z"/><path class="cls-2" d="M113,118v5a4,4,0,0,1-4,4H23.31c-5.57,0-9.69-5.27-7.9-10.51a8.33,8.33,0,0,0,7.9,5.51H109A4,4,0,0,0,113,118Z"/><path class="cls-3" d="M113,5V107a4,4,0,0,1-4,4H23a8,8,0,0,0-7,4.06C14.48,117.55,15,145,15,9a8,8,0,0,1,8-8h86A4,4,0,0,1,113,5Z"/><path class="cls-4" d="M113,101v6a4,4,0,0,1-4,4H23a8,8,0,0,0-8,8c0-5.23-.51-8.41,1.83-11.09A8,8,0,0,1,23,105h86A4,4,0,0,0,113,101Z"/><path class="cls-5" d="M88.56,69.5h0C67.92,86.94,36,72.2,36,45A32,32,0,0,1,68,13C97.91,13,111.3,50.45,88.56,69.5Z"/><path class="cls-2" d="M88.56,69.5h0C67,87.72,33.75,70.74,36.1,42.46a32,32,0,0,0,63.8,0A31.88,31.88,0,0,1,88.56,69.5Z"/><path class="cls-6" d="M88.53,69.51a31.86,31.86,0,0,1-41.06,0C53.29,44.81,82.72,44.85,88.53,69.51Z"/><circle class="cls-7" cx="68" cy="39" r="12"/><path class="cls-8" d="M68,51A12,12,0,0,1,56.17,37a12,12,0,0,0,23.66,0A12,12,0,0,1,68,51Z"/><path class="cls-9" d="M25,1V111H23a8,8,0,0,0-8,8V9a8,8,0,0,1,8-8Z"/><path class="cls-9" d="M25,105v6H23a8,8,0,0,0-8,8c0-5.53-.57-8.75,2.34-11.66C20,104.74,22.71,105,25,105Z"/><path class="cls-8" d="M88.53,69.51a31.86,31.86,0,0,1-41.06,0,30.73,30.73,0,0,1,1.24-4,31.86,31.86,0,0,0,38.58,0A30.73,30.73,0,0,1,88.53,69.51Z"/><path class="cls-10" d="M109,0H23a9,9,0,0,0-9,9c0,118,0,110,0,110.64A9.22,9.22,0,0,0,23.31,128H109a5,5,0,0,0,5-5V5A5,5,0,0,0,109,0Zm3,5V107a3,3,0,0,1-3,3H26V2h83A3,3,0,0,1,112,5ZM16,9a7,7,0,0,1,7-7h1V110H23a9,9,0,0,0-6.94,3.26C16,113.34,16,118.28,16,9Zm96,114a3,3,0,0,1-3,3H23.31c-6.13,0-9.56-6.94-5.68-11.43A6.91,6.91,0,0,1,23,112c90.91,0,87.06.44,89-1Z"/><path class="cls-10" d="M56.15,75.81A33,33,0,1,0,35,45,33.05,33.05,0,0,0,56.15,75.81Zm-7.53-6.68c5.89-22.82,32.86-22.83,38.76,0A30.88,30.88,0,0,1,48.62,69.13ZM68,14c28.07,0,41.61,34.51,21.09,53.65C86.56,59,80.82,52.83,73.57,50.75a13,13,0,1,0-11.14,0c-7.25,2.08-13,8.24-15.52,16.92C26.45,48.69,39.8,14,68,14Zm0,36A11,11,0,1,1,79,39,11,11,0,0,1,68,50Z"/><path class="cls-10" d="M96.5,87h-56a1,1,0,0,0,0,2h56A1,1,0,0,0,96.5,87Z"/><path class="cls-10" d="M96.5,99h-56a1,1,0,0,0,0,2h56A1,1,0,0,0,96.5,99Z"/></svg>