<?xml version="1.0" ?><!DOCTYPE svg  PUBLIC '-//W3C//DTD SVG 1.1//EN'  'http://www.w3.org/Graphics/SVG/1.1/DTD/svg11.dtd'><svg height="120px" id="Layer_1" style="enable-background:new 4 4 120 120;" version="1.1" viewBox="4 4 120 120" width="120px" xml:space="preserve" xmlns="http://www.w3.org/2000/svg" xmlns:xlink="http://www.w3.org/1999/xlink"><g id="at-sign"><g><path d="M104.3,54.1c-1-3.2-1.3-7.2-2.6-10.1c-1.4-2.8-3.4-5.1-5.2-7.5c-2.5-1.9-4.9-4-7.2-6.1c-2.6-1.2-5-2.5-7.2-4.1    c-1.399-0.1-3.3-0.7-4.1-0.9c-1.1-0.3-1.6-0.4-2.3-0.6c-1.601-0.4-3.4-0.3-5.2-0.6c0,0-0.1-0.2-0.3-0.3c-2-0.5-4.101-0.6-6.4-0.6    c-2.2,0.3-4.6,0.8-6.7,1.4c-1.9,0.6-3.9,1-5.5,1.7c-0.4,0.2-0.8,0.7-1.2,0.9c-0.3,0.2-0.6,0.1-0.9,0.3c-0.7,0.4-1.3,0.8-2,1.2    c-1.8,1-3.9,2.4-5.2,3.5c-1.3,1.1-2.5,1.9-3.8,2.9c-0.1,0.1-0.2,0.5-0.3,0.6c-0.2,0.2-0.6,0.1-0.9,0.3c-2.1,1.7-3.4,4-5.5,5.5    c-1,2.3-2.7,3.9-3.8,6.1c-1.5,1.9-2.3,4.4-3.5,6.7c-0.2,3.2-0.9,6-1.5,9c-0.4,9.4,0.9,17,3.8,23.2c0.9,1.101,1.7,2.301,2.6,3.5    c0.9,1.2,2.2,2.101,2.6,3.801c1.5,0.399,2.1,1.8,3.5,2.3c0.4,0.6,0.9,1,1.7,1.2c0.1,0.399,0.6,0.3,0.9,0.6    c0.9-0.4,0.2,0.9,1.2,0.6c0.3,0.5,1.2,0.301,1.7,0.601c0.6,0.2,0.8,0.7,1.7,0.6c1.5,1.2,3.7,1.7,5.2,2.9    c1.5-0.101,2.6,0.3,3.5,0.899c0.6,0.101,1.2-0.899,1.2,0.301c0.5,0.3,0.7,0.8,1.7,0.6c1.3-1,2-2.7,2.9-4.1    c0.2-0.9,0.4-1.9,0.9-2.601c-0.8-1.3,0.5-1.5,0.3-2.899c-1-0.9-3.1-0.801-4.6-1.2c-0.5-0.5-1.5-0.4-2.3-0.601    c-0.7-0.3-1.4-0.5-2.3-0.6c-3-2-5.6-4.4-8.4-6.7c-0.7-1.8-2.1-2.899-2.9-4.6c-0.8-1.8-2.2-3-2.9-4.9c-0.3-3.3-0.6-6.6-0.6-10.1    c0.2-4.9,2.4-9.8,4.3-13.9c2.8-3,5.2-6.3,8.7-8.7c6.7-3.5,13.6-6.9,22.6-8.1c3.9-0.3,6.4,0.7,9.3,1.4c1.101,0.9,2.4,1.7,3.8,2.3    c2.2,2.5,4.5,4.8,6.4,7.5c0.9,2.2,2,4.2,2.9,6.4c0.8,2.4,1.399,5,1.699,7.8c0,2.4,0,4.8,0,7.2C93.7,69.3,93.4,70.6,93.2,72.2    c-0.7,0.8-1,2.3-2.2,2.8c-0.5,1.2-1.3,2.2-2.3,2.9c-1.2,0.5-2,1.399-3.5,1.699C83.4,79.5,81.5,79.4,80,79    c-0.5-3.8-0.6-9.7,0.6-12.7C81,64.7,79.4,65,79.7,63.4c0.7-0.8,0.399-2.5,1.2-3.2c0.1-1.4,0.6-2.3,0.899-3.5c0.4-1,1-1.9,1.2-3.2    c0.6,0,0.1-1.2,0.3-1.7c0.9,0.1,0.9-0.6,0.9-1.5c-1.3-2-4.4-2.2-7-2.9c-1.101,0.4-0.7,2.4-2.3,2.3c-1.4-0.1-1.301-1.6-2.9-1.4    c-1.7-0.4-3.3-0.9-4.9-1.4c-2.8,0.2-4.8-0.5-7.5-0.3c-6.4,1.4-9.4,6-13.3,9.9c-2.5,5.8-4.9,13-4.1,21.2c1.6,3,3.5,5.7,5.8,8.1    c0.5,0,0.7,0.2,0.9,0.601c0.9,0.199,1.7,0.6,2.3,1.199c1-0.1,1.4,0.5,2.3,0.601c0.8,0.2,1.8,0.1,2.3,0.6    c1.5,0.5,3.4,0.7,5.5,0.601c1.4-0.301,2.3-1.2,3.5-1.7c1-0.8,2.7-0.9,3.8-1.7c1.5,1.6,3.601,2.6,5.5,3.8c3.101,0.4,5.5,1.5,9,1.4    c1.2-0.2,2.301-0.4,3.5-0.601c1.801-0.8,3.5-1.699,5.5-2.3c0.601-0.7,1.5-1,2.301-1.399c0.699-0.601,1.3-1.4,2.3-1.7    c0.3-1.101,1.3-1.4,1.7-2.3c0.1-0.601,0.8-0.601,0.899-1.2c0.101-0.601,1.101-0.2,0.9-1.2c0.899-0.2,0.399-1.9,1.399-2    c0.2-1.1,1.101-1.4,1.2-2.6c0.601-0.7,0.7-1.801,1.2-2.601c-0.2-0.8,0.4-0.8,0.3-1.399c0.5-0.2,0-1.4,0.601-1.4    C105.4,64.4,104.3,59.2,104.3,54.1z M52.1,96.4c0.3,0,0.6,0,0.9,0c-0.1,0.399-0.5,0.5-0.6,0.899c-0.2,0.101-0.3-0.1-0.3-0.3    S52.1,96.6,52.1,96.4z M53.3,100.2c-0.2-1.5,0.5-2,0.3-3.5c0.4-0.4,1.3-0.3,2-0.3c0.1,0.699-0.5,0.6-0.3,1.399    c-0.3-0.1-0.5-0.3-0.6-0.6c-1,0.6-0.8,1.8-0.6,2.899c-0.3,0.4-0.8,0.7-0.9,1.4c-0.4-0.2-0.7-0.4-1.2-0.6    C52.4,100.7,52.9,100.5,53.3,100.2z M49.8,97.9c0.7,0,0.1,1,0,1.199c-0.1,0.5,0.3,1.5-0.6,1.2C49.2,99.2,49.8,98.8,49.8,97.9z     M45.2,92.4c-0.1,0.3-0.3,0.199-0.3,0C45,92,45.2,92.2,45.2,92.4z M43.2,93.5c-0.3,0.7,0.9,1.4,0,1.7c-1.1,0.3-0.2-1.5-0.9-1.7    c0.2-1.2-0.3-1.7-0.3-2.6C43.4,90.7,43.2,92.3,43.2,93.5z M34.8,83.1c1.4,0.601,1.5,2.5,3.2,2.9c0.6,1.4,1.5,2.4,2.6,3.2    c-0.6,1.399-1,3.1-0.9,5.2C38.4,94.6,39,92.8,38.8,91.8c-0.5-1.5-0.1-4-1.2-4.899c-1.4-0.2-1.3,1-1.4,2    c-0.1,1-0.5,1.699-0.3,2.899c-1.7-0.399-0.4-3.7-1.2-4.899C34.8,85.6,34.8,84.4,34.8,83.1z M26.9,72.7c-0.4-0.4-0.5-1.3-0.6-2    c0.3,0,0.6,0,0.9,0C27.4,71.6,26.7,71.7,26.9,72.7z M27.5,77c-0.8-0.7-0.7-2.4-0.9-3.8c0.7,0.1,0.5,1,1.4,0.899    C28.1,75.3,27.5,75.9,27.5,77z M26.6,65.4c-0.7-0.5-0.1-2.2-0.3-3.2c0.3-0.8,0.3-2,0.3-3.2c0.9,0.2,1.5,0.8,1.7,1.7    C27.4,62,27,63.7,26.6,65.4z M31,76.7c-0.3,0.1-0.2,0.6-0.6,0.6c-0.4,2.2-0.8,4.2-0.9,6.7c-0.7-0.1-0.3-1.3-0.9-1.5    c0.7-3.5,1.1-7.4,1.7-11c0.7,1.2,0.4,3.3,1.2,4.3C31.7,76.5,31,76.3,31,76.7z M30.1,68c0.4,0.1,0.7,2.6-0.3,2.3    C30,69.7,30.2,69,30.1,68z M32.1,83.1c0-1.3,0-2.5,0-3.8c0.5,0.3,0.6,1.101,1.2,1.4C32.9,81.5,33.2,83,32.1,83.1z M33.3,53.3    c0,0.5-0.2,1-0.6,1.2c-0.8,2.8-1.6,5.6-2.3,8.4c0,0.8,0,1.5,0,2.3c-0.4-0.4-0.9-0.2-1.2,0.3c-0.8-1.1,0.1-3,0-4.3    c-0.3-0.9,1-0.4,0.9-1.2c-0.3-1.8-2-2.2-2.6-3.8c-0.2-1.5,0.6-1.9,0.6-3.2c1,0.1,0.8,1.3,1.5,1.7c0.4,0.7,0.9,1.2,2,1.2    c1.2-0.4,0.3-2.5-0.3-2.9c-0.3-1.2-0.9-2-1.2-3.2c0.3-0.2,0.4-0.5,0.6-0.9c0.8,0.8,0.7,2.4,1.4,3.2c0.5-0.2,1.2,0.8,1.4,0    C34.3,52.2,33.6,53.2,33.3,53.3z M35,50.6c-1.3-0.8-1.4-2.9-2-4.3c-0.2-1.1,0.7-1.2,0.9-2c1.1,0.1,0.5,1.8,1.2,2.3    c0.3,0.7,0.9,1.1,1.7,1.2C36.5,49,35.1,49.2,35,50.6z M38.8,39.9c0.1,0.7,0,1.1-0.3,1.4c-0.2,2.1,1,4.2-0.6,5.2    c-0.9-1.2-1.5-2.6-1.4-4.6c0.4-1.5,2-1.9,2.6-3.2C39.8,38.8,39.1,39.8,38.8,39.9z M42.3,39.1c-0.9-0.1-1-0.9-2.3-0.6    c0,0.4-0.4,0.2,0,0c0.4-1.1,1.8-1.3,2.3-2.3C43.2,36.9,41.9,37.9,42.3,39.1z M46.3,35.3c0,1.3,0,2.5,0,3.8    c-0.8,0.1-0.9,0.9-1.7,0.9c-0.4-2,0.2-3.6,0.3-5.8c0.9-0.1,1.1-0.8,1.7-1.2C47.1,33.2,46.5,34.8,46.3,35.3z M51.3,32.1    c0,1.3-0.7,2-0.6,3.5c-0.3,0.3-0.3,1-0.3,1.7c-0.8-0.2-0.8,0.4-1.5,0.3c-0.1-1.9-0.3-3.8-0.6-5.5c1.3-0.7,2.5-1.5,3.8-2.3    C52.7,30.3,51.6,31.6,51.3,32.1z M53,35.9c0-2.1,0-4.2,0-6.4c0.9-0.3,1.7-0.8,2.9-0.9c-0.9,1.1-1.5,2.6-1.7,4.3    C54.3,34.6,54.9,35.8,53,35.9z M57.9,34.4c-0.4,0-0.8,0-1.2,0c0.6-1.7,0.1-5.2,0.3-6.4c1,0.2,1.1-0.4,2-0.3    c-0.7,1.2-0.6,3.2-1.2,4.6C57.7,33.4,58.4,33.9,57.9,34.4z M61.7,33.5c-0.5,0-1,0-1.4,0c-0.1-2.6,0.6-4.2,0.9-6.4c0.7,0,1.4,0,2,0    c-0.5,1.1-1,2.2-1.4,3.5C61.3,32.1,62.1,32.6,61.7,33.5z M65.8,33c-0.7,0-1.4,0-2,0c0.9-1.8,0.9-4.5,2-6.1    c0.2,0.2,0.5,0.3,0.9,0.3C66.4,29.2,66,31,65.8,33z M73.6,33c-1.1,0-2.1,0-3.199,0c0.199-1.8,0.3-3.6,0.899-4.9c0.4,0,0.8,0,1.2,0    c-0.1,1.4-0.8,2.1-0.6,3.8C71.9,33.2,73.7,32,73.6,33z M74.2,28.9c0.1-0.3,0.3-0.2,0.3,0C74.4,29.2,74.2,29.1,74.2,28.9z     M78.2,33.8c-0.9-0.2-1.9-0.2-2.601-0.6c0.601-1.1,1-2.3,0.9-4.1c1-0.2,1.1,0.4,2,0.3C78.3,30.9,78.1,32.2,78.2,33.8z M77.6,50.4    c0.2-0.2,0.801-0.2,0.9-0.6c1.5-0.2,0.7,1.9,2,1.7c-0.4,2-1.4,3.4-1.4,5.8c-1.6-0.4-0.5-3.4-1.5-4.3C76.9,52.6,76.4,53.9,76.2,53    C76.5,51.9,77.4,51.5,77.6,50.4z M78.5,59.1c-0.4-0.1-0.2-0.7-0.3-1.2C79.4,57.8,78.2,58.3,78.5,59.1z M77.4,62.8    c0.899,0.2-0.2,0.9,0,1.4c-1,0.2-1.2-0.3-1.7-0.6C75.5,62.7,77.2,63.5,77.4,62.8z M77.1,66.9C76.9,67.2,76.8,67.6,76.8,68.1    c-1-0.3-2.1-0.6-2.3-1.699C75.4,66.5,76.3,66.5,77.1,66.9z M67.8,55c0.2,0.2-0.2,0.4-0.3,0.3C67.4,55.1,67.7,54.9,67.8,55z     M64.6,49.2c0.4-0.2,1.5,0.3,1.4-0.3c1.2,0-0.3,1.2-0.3,1.7c-1.2-0.2-3.1,0.4-3.8-0.3C62.1,49.2,64,49.8,64.6,49.2z M61.7,53.3    c0.4,0,0.8,0,1.2,0c-0.6,1.1-0.4,2.9-0.9,4.1C61.3,56.5,61.9,54.5,61.7,53.3z M61.7,50.1c-0.5,1.1-2,1.3-3.5,1.4    C59.1,50.8,60.2,50.2,61.7,50.1z M59.7,53.5c0.1,1.2-0.7,1.5-0.6,2.6C57.9,55.8,57.9,53.3,59.7,53.5z M58.8,57    c0.9,0.5-0.6,0.9-0.6,1.4c-0.4-0.1-0.2-0.7-0.3-1.2C58.3,57.3,58.8,57.4,58.8,57z M47.8,77.9c-1.7-0.7-0.5-4.301-0.9-6.4    c0.3,0.2,0.7,0.3,1.2,0.3C47.8,73.7,47.7,75.7,47.8,77.9z M47.5,68.6C47,68.7,47,67,47.5,67.1c0.2-0.5,0.1-1.199,0.6-1.399    c-0.2-1.2,0.4-1.5,0.3-2.6c0.6-0.4,0.6-1.3,0.9-2c0.4,0.1,0.5,0.5,0.9,0.6C49.5,64.2,49.1,67,47.5,68.6z M49.8,81.1    c0-0.3,0.5-0.199,0.9-0.3c0.1,0.9,1.3,0.8,1.2,2C50.9,82.6,50.6,81.5,49.8,81.1z M50.7,59.6c-0.7-1.3,1.2-2,1.4-3.2    c0.3,0,0.2,0.5,0.3,0.9C51.6,57.8,51.9,59.5,50.7,59.6z M53.3,74.7c-0.8,0.1-0.7-0.601-0.9-1.2c0.3,0,0.6,0,0.9,0    C53.3,73.9,53.3,74.3,53.3,74.7z M56.2,52.7c0,0.7-0.5,0.9-0.3,1.7c-0.9,0.3-1.4,1-2.3,1.2C53,54,54.7,53,56.2,52.7z M54.2,59.3    c0.9,0.3,1.5,1,1.7,2c1.7-0.5,2.6-1.9,3.8-2.9c1.4,0-0.3,0.4,0,1.2c-0.3,0.2-0.7,0.3-1.2,0.3c-0.4,1.3-1.6,1.9-2,3.2    c-0.8,0-0.7-0.8-1.2-1.2c-0.9,0-1-0.8-1.7-0.9C53.5,60.2,54.2,60.2,54.2,59.3z M53.9,64.8c0.9,0.2,0.9-0.5,1.7-0.3    c-0.5,1.6-1.4,2.8-1.7,4.6C53.4,68.4,54.2,66.4,53.9,64.8z M54.5,79.9c0.5,0,1,0,1.5,0c0.2-2-1.7-1.9-1.7-3.801    c1,0.7,1.4,1.9,2.6,2.301c-0.4,0.899-0.3,2.399-0.3,3.8C55.6,81.7,54.2,81.7,54.5,79.9z M54.8,83.7c0.8,0,1.5,0,2.3,0    c0,0.5,0.4,0.6,0.3,1.2C56.6,84.4,54.8,84.9,54.8,83.7z M60.5,84.8c-1.9-0.3-2-2.5-2.6-4.1c0-0.5,0-1,0-1.4    c0.9,0.2,1.5,0.9,2.6,0.9c0,0.7-0.5,0.899-0.3,1.7C59.4,81.8,59,82,59,82.8C59.2,83.9,60.8,83.5,60.5,84.8z M56.2,75    c0-0.5-0.2-1-0.6-1.2c0.5-8.2,3.7-13.7,9.9-16.2c2.5,0,4.7,0.2,5.8,1.4c0.7,3.6-0.5,7.8-0.899,11.3c-0.5,0.7-1.2,1.3-1.4,2.3    c-2.2,1.2-3.6,3.301-6.4,4.101C59.9,76.7,57.5,76.4,56.2,75z M62.3,84c0-0.2,0-0.4,0-0.6c0.6-0.101,0.6,0.399,0.6,0.899    C62.6,84.2,62.6,84,62.3,84z M61.7,81.7c0-0.4,0-0.8-0.3-0.9c0-0.6,1.2-0.1,1.7-0.3C63.2,81.4,62.4,81.5,61.7,81.7z M64.9,78.5    c0,0.2,0,0.3-0.301,0.3c-0.1,0.5-0.5,0.7-1.2,0.601c0.2-0.4,0.6-0.5,1.2-0.601C64.6,78.6,64.6,78.4,64.9,78.5    C64.9,78.1,65.3,78.3,64.9,78.5z M65.8,82.5c-0.6,0-0.1-1.2-0.3-1.7C65.9,81.2,66.1,82.2,65.8,82.5z M71.3,77.6    c-0.6-0.6-0.5-1.8-1.399-2c-0.9,0.101-0.7,1.4-1.2,2c0.1,1.101,1.1,2.7,0,3.2c-0.8-1.1-1.3-2.399-1.2-4.3c1.4-0.8,2.5-1.9,3.5-3.2    C71.9,74.6,71.8,75.9,71.3,77.6z M70.7,51.5c-0.2-1.1,0.399-1.4,0.3-2.3c2,0,2.8,1.2,3.2,2.9c-0.8,0.2-0.601-0.6-0.9-0.9    c-1.7,1-1,5.4,1.2,5.2c0-0.2,0-0.3,0.3-0.3c0.2-1.6-0.899-2-0.899-3.5c0.5,0.7,1.3,1,1.699,1.7c0,0.9,0.2,1.9-0.899,1.7    c0,0.2,0,0.3-0.3,0.3c0,0.3,0,0.6,0,0.9C73.3,57,73,56.1,71.8,56C71.5,54.5,71.8,52.4,70.7,51.5z M72.1,72.4    c0.301-0.801,1.7,1,2,1.199c-0.5,0-0.6,0.301-1.1,0.301C72.9,73.2,72.7,72.6,72.1,72.4z M74.5,83.7c-0.7,0-0.6-1-0.6-1.7    C74.6,82,74.5,82.9,74.5,83.7z M74.7,79.9c-1.2,0.199-0.8-1.101-0.9-2c0.4,0.199,0.7,0.399,1.2,0.6C75.2,79.2,74.5,79.1,74.7,79.9    z M76.2,77c-1.601-0.2-1.7-2-2-3.5c1.1,0.1,1.1,0.4,2,0C76.2,74.7,76.2,75.9,76.2,77z M76.5,71.5c-1.7-0.3-3.2-1.4-2.6-3.2    c0.6,0.4,1.1,0.8,1.399,1.4C75.8,70.2,76.8,70.3,76.5,71.5z M76.8,79.9c0.3,0.1,0.2,0.6,0.601,0.6C77.2,81.3,76.4,80.5,76.8,79.9z     M77.4,86.6C77.3,85.6,77,84.7,77.1,83.4c1-0.101,1.601,0.1,2.301,0.3c0.199,1.2,0.6,2.1,0.6,3.5C79.4,86.7,78,87,77.4,86.6z     M83.4,87.2c-0.101-1.5,0.5-2.4,0.899-3.5C85.6,84,85.5,85.6,86,86.6C85.1,86.7,84.5,87.1,83.4,87.2z M87.2,81.1    C87.2,81.4,86.8,81.3,87.2,81.1C87.2,80.7,87.6,80.9,87.2,81.1z M89.8,84.8c-0.7-0.7-0.2-2.7,0-3.5c0.2-0.1,0.3,0.101,0.3,0.3    c0.101,1.101,1.2,1.101,1.4,2C90.9,84,90.3,84.3,89.8,84.8z M93.9,81.4c-0.5,0.8-1-0.9-1.4-1.2c-0.2-0.7-0.8-1.101-0.9-2    c-0.1-1.5,1.4-1.5,1.7-2.601C94.8,76.8,92.9,79.8,93.9,81.4z M98.2,48.3c0.3,0,0.5,0.1,0.6,0.3c0.601,1.5,1.4,2.8,1.7,4.6    c-1.2,0.2-1.9-0.2-2.9-0.3C97.8,51.4,98.1,49.9,98.2,48.3z M97.1,63.1c0-1,0-1.9,0-2.9c0.301,0.1,0.2,0.6,0.601,0.6    C97,61.1,97.8,62.9,97.1,63.1z M96.2,55c0.899,0.1,1.5,0.5,2,0.9c0.2,1.1-0.4,1.4-0.3,2.3C96.3,58.2,96.4,56.4,96.2,55z     M96.2,43.4c0.399,0.4,1.1,1.2,0.6,1.7C96,45.1,96.2,44.2,96.2,43.4z M88.1,33c1.101,0.3,0.2,1.5,0.301,2.3    C87.7,35.1,88.3,33.7,88.1,33z M82.6,35.9c-0.899-0.1-1.3-0.6-2-0.9c0.801-1.1-0.199-3.9,0.601-4.9c0.899,0.2,1.5,0.9,2.6,0.9    C82.9,32.1,82.8,34.1,82.6,35.9z M85.8,38.2c-1.5-1-0.6-4.4-0.899-6.7c0.5-0.1,0.5,0.3,0.899,0.3C86.1,33.5,85.4,36.1,85.8,38.2z     M88.9,41.7c-0.9-0.3-1-1.4-1.7-1.7c0.2-0.7,1.6-0.1,2.3-0.3C89.7,40.7,89.3,41.2,88.9,41.7z M92.7,47.7c-1.3-1.4-1.9-3.5-3.2-4.9    c0.6-0.5,2.2,0.5,2.9,0.9C92.5,45.4,93.2,46,92.7,47.7z M92.7,39.1c-0.2-0.6-0.5-0.4-0.9-0.9c0-0.4,0-0.8,0-1.2    c1.4,1.1,2.5,2.5,3.2,4.3c-0.6-0.1-0.9,0.1-0.9,0.6C92.6,41.9,93.2,40.2,92.7,39.1z M93.9,49.8c0-1,0.899-1,0.899-2    c1.3,0.6-0.2,2.4,0.3,4.1C94.4,51.3,94.3,50.4,93.9,49.8z M95.9,79.3c-1.101-0.8,0.8-1.1,0.899-1.7c0.2-1.3-0.8-1.3-0.899-2.3    c-0.601-0.399-0.601-1.6-1.2-2c0-0.899,0.8-1,0.899-1.7c1.601,0.5,2.2,1.9,4.301,1.7C99.1,75.8,97.3,77.3,95.9,79.3z M100.2,71.5    c-1.601-0.3-2.101-1.5-3.5-2c-0.2-1.1,0.5-1.2,0.3-2.3c1.1,0.899,2.1,1.8,3.5,2.3C100.8,70.5,100.1,70.6,100.2,71.5z M100.8,66.3    c-0.6-0.5-1.399-0.7-1.7-1.5c0.101-0.9,0.9-1.3,0.9-2.3c0.3,0,0.6,0,0.9,0C101.5,63.5,101,65.3,100.8,66.3z M101.1,59.9    c-1.199-0.4-0.1-1.8-0.3-2.9C101.5,57.4,100.9,59,101.1,59.9z"/></g></g></svg>