<svg xmlns="http://www.w3.org/2000/svg" xmlns:xlink="http://www.w3.org/1999/xlink" viewBox="0 0 128 128"><defs><style>.cls-1{fill:#4da67f;}.cls-2{fill:url(#linear-gradient);}.cls-3{fill:url(#linear-gradient-2);}.cls-4{fill:url(#linear-gradient-3);}.cls-5{fill:url(#linear-gradient-4);}.cls-6{fill:#f6b756;}.cls-7{fill:url(#linear-gradient-5);}.cls-8{fill:url(#linear-gradient-6);}.cls-9{fill:#5b8dc9;}.cls-10{fill:#47566a;}</style><linearGradient id="linear-gradient" x1="26" y1="124.08" x2="26" y2="102.96" gradientUnits="userSpaceOnUse"><stop offset="0" stop-color="#6ab891"/><stop offset="1" stop-color="#85cba9"/></linearGradient><linearGradient id="linear-gradient-2" x1="64" y1="105.55" x2="64" y2="71" xlink:href="#linear-gradient"/><linearGradient id="linear-gradient-3" x1="102" y1="124.08" x2="102" y2="102.96" xlink:href="#linear-gradient"/><linearGradient id="linear-gradient-4" x1="64" y1="65.05" x2="64" y2="1" gradientUnits="userSpaceOnUse"><stop offset="0" stop-color="#fbcc88"/><stop offset="1" stop-color="#ffe5c3"/></linearGradient><linearGradient id="linear-gradient-5" x1="64" y1="65" x2="64" y2="38.99" gradientUnits="userSpaceOnUse"><stop offset="0" stop-color="#7aa8d7"/><stop offset="1" stop-color="#96c8ea"/></linearGradient><linearGradient id="linear-gradient-6" x1="64" y1="39" x2="64" y2="15" xlink:href="#linear-gradient-5"/></defs><title>Welcome</title><g id="Welcome"><path class="cls-1" d="M10,111,1,127H36.08A2.92,2.92,0,0,0,39,124.08V95H1Z"/><path class="cls-2" d="M14.25,107.74l23.32,13.83A2.92,2.92,0,0,1,39,124.08V103c-25.23,0-24.22-.31-25.25.75A2.54,2.54,0,0,0,14.25,107.74Z"/><path class="cls-1" d="M118,111l9,16H91.92A2.92,2.92,0,0,1,89,124.08V95h38Z"/><path class="cls-3" d="M115,74v31.55a2.49,2.49,0,0,0-.75-1.8c-1.14-1.17,4.59-.75-98.7-.75A2.55,2.55,0,0,0,13,105.55V74a3,3,0,0,1,3-3h96A3,3,0,0,1,115,74Z"/><path class="cls-1" d="M115,101.55v4a2.49,2.49,0,0,0-.75-1.8c-1.14-1.17,4.59-.75-98.7-.75A2.55,2.55,0,0,0,13,105.55c0-3.85-.26-4.81.75-5.8,1.14-1.17-4.59-.75,98.7-.75A2.55,2.55,0,0,1,115,101.55Z"/><path class="cls-4" d="M113.75,107.74,90.43,121.57A2.92,2.92,0,0,0,89,124.08V103c25.23,0,24.22-.31,25.25.75A2.54,2.54,0,0,1,113.75,107.74Z"/><path class="cls-5" d="M84.56,57.5h0C63.92,74.94,32,60.2,32,33A32,32,0,0,1,64,1C93.91,1,107.3,38.45,84.56,57.5Z"/><path class="cls-6" d="M84.56,57.5h0C63.1,75.66,29.51,58.9,32.14,30a32,32,0,0,0,63.72,0A31.89,31.89,0,0,1,84.56,57.5Z"/><path class="cls-7" d="M84.53,57.51a31.86,31.86,0,0,1-41.06,0C49.35,32.81,78.65,32.84,84.53,57.51Z"/><circle class="cls-8" cx="64" cy="27" r="12"/><path class="cls-9" d="M64,39A12,12,0,0,1,52.17,25a12,12,0,0,0,23.66,0A12,12,0,0,1,64,39Z"/><path class="cls-9" d="M84.53,57.51a31.86,31.86,0,0,1-41.06,0A29.28,29.28,0,0,1,45,52.74a31.86,31.86,0,0,0,37.94,0A29.28,29.28,0,0,1,84.53,57.51Z"/><path class="cls-10" d="M119.17,111c9.4-16.71,9.13-15.79,8.71-16.52s-.23-.5-11.6-.5c-.38,0-.26,2.44-.26-20a4,4,0,0,0-4-4H16a4,4,0,0,0-4,4v20C11.7,94,12.72,94,.92,94A1,1,0,0,0,0,95.5L8.75,111,0,126.5A1,1,0,0,0,.92,128H36a4,4,0,0,0,4-3.94V104H88v20.06A4,4,0,0,0,91.92,128H127a1,1,0,0,0,.89-1.52ZM14,74a2,2,0,0,1,2-2h96a2,2,0,0,1,2,2v28.32c-1.07-.51,5.57-.34-98.43-.34a3.6,3.6,0,0,0-1.53.34Zm22.06,52H2.66l8.15-14.48c.4-.71.63.12-8.15-15.48,9.73,0,9,0,9.32-.07v9.6a3.58,3.58,0,0,0,1.75,3.07l23.32,13.83A1.9,1.9,0,0,1,36.08,126Zm1.9-5.35c-25.07-14.87-24-13.84-24-15.08A1.53,1.53,0,0,1,15.55,104H38ZM112.45,104a1.53,1.53,0,0,1,1.53,1.53c0,1.23,1.15.19-24,15.08V104ZM91.92,126a1.9,1.9,0,0,1-1-3.53l23.32-13.83a3.58,3.58,0,0,0,1.75-3.07V96c.28.07-.75,0,9.23,0-8.77,15.6-8.54,14.77-8.14,15.48L125.25,126Z"/><path class="cls-10" d="M51.89,63.71A33,33,0,1,0,31,33,33.06,33.06,0,0,0,51.89,63.71Zm-7.27-6.58c5.89-22.82,32.86-22.83,38.76,0A30.86,30.86,0,0,1,44.62,57.13ZM64,2c28.07,0,41.61,34.51,21.09,53.65C82.56,47,76.82,40.83,69.57,38.75a13,13,0,1,0-11.14,0c-7.25,2.08-13,8.24-15.52,16.92C22.45,36.69,35.8,2,64,2Zm0,36A11,11,0,1,1,75,27,11,11,0,0,1,64,38Z"/></g></svg>